# xmcd CD database file
#
# Track frame offsets:
#	150
#	31971
#	58584
#	70436
#	95700
#	132305
#	142912
#	175420
#	202753
#	232882
#	235645
#	246030
#	267499
#
# Disc length: 3945 seconds
#
# Revision: 1
# Processed by: cddbd v1.5.2PL0 Copyright (c) Steve Scherf et al.
# Submitted via: CDex 1.70beta2
#
DISCID=b30f670d
DTITLE=Pippo Matino - Essential Team
DYEAR=2006
DGENRE=Jazz
TTITLE0=MuSiCa ArGiNaTa
TTITLE1=CaRaVaN
TTITLE2=FuNkY MAALOX
TTITLE3=4TRANE
TTITLE4=Essential BLUES
TTITLE5=CoSe di MeDiTeRrAnEo
TTITLE6=LaUrEn&TiNa 97
TTITLE7=TaNDoORrl
TTITLE8=NiGhT PaSsAgE
TTITLE9=PoRt of EnTrY
TTITLE10=FoReVeR
TTITLE11=UnA StRaNa NinnAnAnnA
TTITLE12=SouL's ReVeRsE
EXTD=YEAR: 2006
EXTT0=
EXTT1=
EXTT2=
EXTT3=
EXTT4=
EXTT5=
EXTT6=
EXTT7=
EXTT8=
EXTT9=
EXTT10=
EXTT11=
EXTT12=
PLAYORDER=
